HIERARCHY
ROOT Spine
{
    OFFSET 0.0 0.0 -0.0
    CHANNELS 6 Xposition Yposition Zposition Zrotation Xrotation Yrotation
    JOINT ShoulderCenter
    {
        OFFSET 0.0 32.65574264526367 0.0
        CHANNELS 3 Zrotation Xrotation Yrotation
        JOINT LeftShoulder
        {
            OFFSET 18.40671157836914 0.0 0.0
            CHANNELS 3 Zrotation Xrotation Yrotation
            JOINT LeftElbow
            {
                OFFSET 32.48051071166992 0.0 0.0
                CHANNELS 3 Zrotation Xrotation Yrotation
                JOINT LeftHand
                {
                    OFFSET 33.902774810791016 0.0 0.0
                    CHANNELS 3 Zrotation Xrotation Yrotation
                    End Site
                    {
                        OFFSET 13.561110496520996 0.0 0.0
                    }
                }
            }
        }
        JOINT RightShoulder
        {
            OFFSET -18.40671157836914 0.0 0.0
            CHANNELS 3 Zrotation Xrotation Yrotation
            JOINT RightElbow
            {
                OFFSET -32.48051071166992 0.0 0.0
                CHANNELS 3 Zrotation Xrotation Yrotation
                JOINT RightHand
                {
                    OFFSET -33.902774810791016 0.0 0.0
                    CHANNELS 3 Zrotation Xrotation Yrotation
                    End Site
                    {
                        OFFSET -13.561110496520996 0.0 0.0
                    }
                }
            }
        }
        End Site
        {
            OFFSET 0.0 13.062296867370605 0.0
        }
    }
    JOINT LeftHip
    {
        OFFSET 17.149095450070135 -17.149095450070135 0.0
        CHANNELS 3 Zrotation Xrotation Yrotation
        JOINT LeftKnee
        {
            OFFSET 0.0 -42.42683410644531 0.0
            CHANNELS 3 Zrotation Xrotation Yrotation
            JOINT LeftFoot
            {
                OFFSET 0.0 -47.721031188964844 0.0
                CHANNELS 3 Zrotation Xrotation Yrotation
                End Site
                {
                    OFFSET 0.0 0.0 19.08841323852539
                }
            }
        }
    }
    JOINT RightHip
    {
        OFFSET -17.149095450070135 -17.149095450070135 0.0
        CHANNELS 3 Zrotation Xrotation Yrotation
        JOINT RightKnee
        {
            OFFSET 0.0 -42.42683410644531 0.0
            CHANNELS 3 Zrotation Xrotation Yrotation
            JOINT RightFoot
            {
                OFFSET 0.0 -47.721031188964844 0.0
                CHANNELS 3 Zrotation Xrotation Yrotation
                End Site
                {
                    OFFSET 0.0 0.0 19.08841323852539
                }
            }
        }
    }
}
MOTION
Frames: 12
Frame Time: 0.03333333333333333
-2.4000000953674316 14.90000057220459 17.700000762939453 -3.160361960876582 -1.578982382340503 -7.426857835102307 2.2457021171847852e-07 -2.2960231899699792e-07 3.0092829969415895 117.27959866827456 42.242872167770926 -176.88277057667176 8.443476491614158e-07 2.947726943225997e-06 19.637233683266178 6.772655745049997e-15 3.882513038898309e-19 4.085956722134039e-15 -77.34366141401676 71.82169592162559 137.76603684567803 -3.247459764747397e-06 7.917794792075062e-06 -16.39811922257696 0.0 -7.156248033292914e-15 0.0 14.84980599816622 3.180725290808703 -47.139644712245484 5.491933414342661 5.844563703361022 -34.531511105840686 -4.770832022195275e-15 -1.4896933755919285e-31 3.578124016646457e-15 -7.087492876275359 -3.205548920441068 17.104726424371698 -3.7826395416510934 1.6946461617891253 10.316588401514139 3.1805546814635168e-15 -3.975693351829396e-16 -1.0436195048552165e-15
-2.5 14.90000057220459 18.19999885559082 -3.160361868897057 -0.8773612493239568 -7.0712542881028915 -8.227248788180676e-08 -1.733121978016579e-08 3.1424290383348583 124.14722858062298 49.459917554709065 177.09938391263142 -1.0520773279999659e-06 5.500459442683006e-06 18.988186955836806 3.1805546814635176e-15 -6.361109362927035e-15 -3.975693351829397e-15 -88.40827903057115 77.66684405539694 147.7392003312454 -3.9623638900039815e-06 -1.3111359505156334e-06 -16.736977879860913 0.0 5.565970692561154e-15 0.0 14.91566928480087 2.681821065058034 -45.381987768023606 5.8931877353869435 5.493926932341302 -34.9424329771886 0.0 0.0 -2.5842006786891076e-15 -7.059990708995458 -3.5818205425593796 15.945127262494418 -3.8276959265812622 1.4922512327034703 9.390992720153397 -4.310455369189608e-34 3.975693351829396e-16 1.2424041724466862e-16
-2.5 14.90000057220459 18.700000762939453 -3.1507164263478153 -0.3499001617804325 -6.724147612807841 -1.912171301575856e-07 -1.0807067836959426e-08 3.1110840939490876 133.8958343758017 52.468069368327704 168.95840909577754 -4.983512315586438e-06 1.8114452351708127e-06 19.069628161955464 0.0 0.0 0.0 -106.05189318867936 84.1776042146458 163.620225105049 -8.224942821548904e-07 -6.062782306947584e-06 -16.824188462047374 -3.1805546814635164e-15 -6.361109362927032e-15 -6.361109362927032e-15 15.077769752839789 2.364939175395332 -45.6012010840031 5.947347263322414 5.138141452494717 -35.32380462238116 1.5902773407317584e-15 -5.241513728934563e-32 -3.776908684237926e-15 -7.081621213181589 -3.6532527682044362 15.058352329897662 -3.7880073132988183 1.039054985765086 6.388696897594079 -3.1805546814635168e-15 5.172546443027529e-33 -1.8636062586700292e-16
-2.6000001430511475 15.000000953674316 19.100000381469727 -3.160362010176315 0.35097018110455513 -6.401288222813228 1.3619518518834484e-07 3.8344680791353846e-08 3.0963732640436383 144.23865383869355 55.24492535093366 161.11066968431115 9.77335570800024e-07 4.167203493834398e-06 19.22397792599664 -7.951386703658794e-16 7.156248033292914e-15 1.5902773407317584e-15 -172.5844372640822 86.19356799627467 -132.25782540216767 -2.7743501084396757e-07 -2.053982379234189e-06 -16.736318859317944 3.1805546814635164e-15 6.361109362927033e-15 -1.7655625192200634e-31 15.115229221872871 1.8705260499025518 -44.54494179774809 6.501504472972013 4.942319184896427 -38.20523526078907 -3.1805546814635164e-15 -2.758691436281349e-32 9.939233379573488e-16 -7.050309207714665 -4.0319189628960626 13.874554796547805 -3.8668316416183957 0.7160063347268405 4.618394011295352 -3.1805546814635176e-15 1.4483130040477084e-32 -5.218097524276083e-16
-2.700000047683716 15.000000953674316 19.5 -3.335551215158479 0.7017888752895369 -5.711043962615283 -1.7432839891826914e-07 -2.5247804129681768e-09 2.5761921412775566 155.1932008451801 55.806329290007334 153.15039022509586 -1.4193049403717365e-06 -5.87708672903985e-06 19.71000033634489 -3.1805546814635168e-15 -7.951386703658792e-16 -2.2069531490250793e-32 146.82863761283502 83.26257311712739 -94.20729846928768 1.7392370528119194e-06 1.371010581182587e-07 -17.095253571596675 3.1805546814635164e-15 8.827812596100317e-32 3.1805546814635164e-15 15.214032554349995 1.627695950391124 -42.81066895383333 7.085904928489719 4.5237730556897 -39.54020447777059 -1.5902773407317588e-15 -6.896728590703373e-32 4.969616689786747e-15 -6.783956793133795 -3.992182492253844 13.219421649666543 -4.020425316418941 0.5836208006923711 3.7724353906493904 0.0 0.0 3.230250848361384e-16
-2.700000047683716 15.000000953674316 19.899999618530273 -3.1603614816811185 0.701910659575365 -5.712172025639245 7.341769140557717e-08 -2.6265725258804098e-08 2.4185377019727805 168.43598574426858 58.192555743462755 144.34840946978636 -6.777651151711468e-07 5.674685446044644e-06 18.99433173309672 0.0 0.0 0.0 133.87884315677348 80.24953798894335 -84.96560101378938 1.3788502687384792e-06 -2.337466501904423e-06 -17.41672965705886 3.1805546814635168e-15 -3.975693351829396e-16 1.1034765745125397e-32 14.99986610773425 2.0087453237493773 -44.07447515106618 7.20732555441403 4.505741207266949 -40.128027365274896 1.5902773407317582e-15 1.5902773407317582e-15 3.975693351829395e-16 -6.850695463642686 -3.72501039257825 13.142271914881377 -4.049602561759317 0.5401507617948439 3.365693095590712 1.3793457181406746e-33 1.9878466759146975e-16 -7.95138670365879e-16
-2.700000047683716 15.000000953674316 20.200000762939453 -3.160361659168742 0.5264436963713569 -5.40440630747082 -6.349864632287017e-08 -1.315979694877548e-08 2.2673415297178057 -175.32142711229855 61.815754316769485 134.2738357593748 -9.5475375002961e-07 -1.4147145744823566e-06 18.045691838815095 0.0 0.0 0.0 129.59934709894142 77.2224912932762 -85.06061903653863 -2.7479323297211146e-07 -4.948835574381627e-06 -17.870486676235895 6.3611093629270335e-15 6.1623246953355635e-15 -3.420777380988873e-31 14.827561577009273 2.4847404740318537 -43.626855522351974 7.686586057252123 4.07319917843114 -37.997721305252455 -1.5902773407317584e-15 -6.069121159818968e-32 4.373262687012335e-15 -6.874380621501033 -3.3710831963110746 13.596871678656475 -4.2111373809756625 0.5871205068920463 3.7971699253524904 5.517382872562698e-33 -3.975693351829397e-16 1.5902773407317588e-15
-2.700000047683716 14.90000057220459 20.5 -3.325373604565964 1.3543347249103358e-09 -5.118058892087978 -2.1286031260703758e-07 -8.664708573388542e-09 1.9768153982099224 -159.69967058096512 63.46829499024493 125.79441971950837 1.0454488453024119e-07 2.9420063859301503e-06 17.341260617975493 -1.5902773407317584e-15 6.3611093629270335e-15 8.827812596100317e-32 123.84854267502118 75.09200253626459 -84.0923762849874 -1.6290610413775129e-06 -5.413983831398254e-06 -18.730569033926134 0.0 -6.385957446375966e-15 0.0 14.928664038682797 3.3312342362165 -43.530529320176505 7.941094182573149 3.652872392402136 -34.5624939712994 1.5902773407317584e-15 3.310429723537619e-32 2.3854160110976376e-15 -6.782297886577254 -2.6655257864387853 14.129525481198849 -4.311390649039111 0.8711558480611237 5.819809888702983 0.0 0.0 1.840311180436654e-16
-2.6000001430511475 14.90000057220459 20.80000114440918 -3.3253738974383116 -0.8745424707963952 -4.535941871731226 6.640641868191785e-08 1.0581000591190852e-08 1.6954017566027901 -143.42148887356376 66.31416707958522 116.27800341130101 -5.895806653503017e-07 -2.7286270456120607e-06 18.390417430510844 -8.827812596100317e-32 -6.361109362927035e-15 -1.5902773407317588e-15 116.7973785588527 73.631261306656 -82.85922331580618 -1.5873863043208981e-06 -1.3190520853618854e-06 -19.242410899186968 -1.5902773407317584e-15 6.2617170291312985e-15 8.68987802428625e-32 14.878674999881017 4.016953538110824 -44.28475633349909 7.863778121514308 3.755665308279739 -36.49594462673314 -1.5902773407317584e-15 1.5902773407317584e-15 -4.969616689786745e-15 -6.907067964789929 -1.3223472705959343 16.2455205594475 -4.246133646603651 0.7577386314277399 4.841495168446341 0.0 0.0 -2.236327510404035e-16
-2.5 14.90000057220459 21.0 -3.3355515081742166 -2.104528741824525 -3.9271276090039606 2.213741064294037e-08 8.790421840645907e-08 1.2272730905064646 -134.61040609308935 67.95042925061851 114.49754612864027 -4.0925289731183377e-07 2.2039125702850023e-06 18.853937060639094 0.0 9.939233379573487e-17 0.0 99.6031718309415 73.30320212057148 -72.34839933720484 1.8098195268512022e-06 -3.501651422606421e-06 -19.45767423105911 -3.180554681463516e-15 0.0 0.0 14.884854853277863 4.7811760847518565 -45.39028138077787 7.447277212989333 4.297420088712234 -40.25168853459917 0.0 0.0 -2.1866313435061676e-15 -6.730468114756012 0.4019141283094448 18.64435696745582 -4.699662907108449 0.7895669354535749 4.752315297277743 2.8017959899732453e-33 -3.975693351829396e-16 8.075627120903461e-16
-2.4000000953674316 14.800000190734863 21.0 -3.335551377065603 -2.9800628816322763 -3.336388923184649 1.1905163227418555e-07 1.7949399571567742e-07 0.9308290581636712 -124.95881686009467 71.60349355388493 111.7383032069667 -7.780952803652649e-07 5.258372268844889e-06 19.156794866303343 -7.951386703658794e-16 6.361109362927035e-15 7.951386703658794e-16 90.39645191133437 74.09524314550706 -69.51629149154465 3.4568438002168475e-07 7.191984622958625e-07 -19.654646810104655 3.4759512097145e-31 1.2523434058262597e-14 -3.1805546814635168e-15 14.775607743741558 5.335973471079531 -46.77727790403279 7.102436875217604 4.806812710246634 -39.807428366250036 1.5902773407317584e-15 1.590277340731758e-15 -7.35503270088438e-15 -6.962998617766196 1.7362615061130187 23.531646559693296 -4.555012621172576 0.8987817174766637 5.19448082445107 -1.5902773407317584e-15 4.138037154422024e-33 -2.981770013872047e-16
-2.299999952316284 14.699999809265137 21.0 -3.345791079272885 -4.21623329616346 -3.3976740897467157 6.630990539929025e-08 1.5064374264224772e-07 1.1301731958743417 -118.24309274461649 75.85810096969699 111.71693068232229 -2.0790866631103597e-07 -2.205777938029602e-06 19.248175498237636 -7.951386703658792e-16 6.3548973420648005e-15 2.484808344893373e-16 70.2571001706705 75.31564201123757 -56.21788476168267 2.3283758578450323e-06 9.933241556594022e-06 -19.69735555802857 0.0 0.0 -7.951386703658792e-16 14.618878793546 6.274736208463978 -47.044030050635286 6.654114903300047 5.467908763127494 -39.877953022983114 -1.5902773407317584e-15 1.5902773407317584e-15 -2.1866313435061676e-15 -7.034027787864209 2.9543120658507 25.450821272215542 -4.469608187029974 1.2600466874681684 7.016369174185819 -1.5902773407317584e-15 5.655317444376766e-32 -4.075085685625131e-15
